<svg width="44" height="40" viewBox="0 0 44 40" fill="none" xmlns="http://www.w3.org/2000/svg">
<path d="M8.07324 12.3868L20.5042 16.3123C21.3594 16.5824 22.277 16.5824 23.1322 16.3123L35.5631 12.3868C34.8469 5.42778 28.9664 0 21.8182 0C14.6699 0 8.78944 5.42778 8.07324 12.3868Z" fill="#F3C3AF"/>
<path d="M24.0138 20.3956C22.585 20.8481 21.0514 20.8481 19.6226 20.3956L3.78732 15.3811C1.9119 14.7873 0 16.1873 0 18.1545V23.2126C0 24.1619 0.463161 25.0515 1.24084 25.5959L20.1499 38.8322C21.1516 39.5334 22.4848 39.5334 23.4864 38.8322L42.3955 25.5959C43.1732 25.0515 43.6364 24.1619 43.6364 23.2126V18.1545C43.6364 16.1873 41.7245 14.7873 39.849 15.3811L24.0138 20.3956Z" fill="#1C62EB"/>
</svg>
